<svg width="0" height="0"><symbol xmlns="http://www.w3.org/2000/svg" id="cup" fill="none" viewBox="0 0 24 24"><path stroke="#fff" stroke-linecap="round" stroke-linejoin="round" stroke-width="1.5" d="M12.15 16.5v2.1"/><path stroke="#fff" stroke-miterlimit="10" stroke-width="1.5" d="M7.15 22h10v-1c0-1.1-.9-2-2-2h-6c-1.1 0-2 .9-2 2v1Z"/><path stroke="#fff" stroke-linecap="round" stroke-linejoin="round" stroke-width="1.5" d="M6.15 22h12M12 16c-3.87 0-7-3.13-7-7V6c0-2.21 1.79-4 4-4h6c2.21 0 4 1.79 4 4v3c0 3.87-3.13 7-7 7Z"/><path stroke="#fff" stroke-linecap="round" stroke-linejoin="round" stroke-width="1.5" d="M5.47 11.65c-.75-.24-1.41-.68-1.93-1.2-.9-1-1.5-2.2-1.5-3.6s1.1-2.5 2.5-2.5h.65c-.2.46-.3.97-.3 1.5v3c0 1 .21 1.94.58 2.8Zm13.06 0c.75-.24 1.41-.68 1.93-1.2.9-1 1.5-2.2 1.5-3.6s-1.1-2.5-2.5-2.5h-.65c.2.46.3.97.3 1.5v3c0 1-.21 1.94-.58 2.8Z"/></symbol><symbol xmlns="http://www.w3.org/2000/svg" id="fire" fill="none" viewBox="0 0 24 24"><path fill="#fff" fill-rule="evenodd" d="M10.507 1.508a.75.75 0 0 1 .734-.239c3.608.829 5.433 4.783 5.003 8.321-.166 1.376-.578 2.454-1.185 3.312l-.011.016c.138-.068.265-.141.384-.218.592-.385 1.026-.892 1.592-1.552l.211-.246a.75.75 0 0 1 1.238.151A7.25 7.25 0 1 1 8.024 8.26l.067-.068a.75.75 0 0 1 .114-.094c.865-.583 1.487-1.06 1.906-1.62.395-.529.638-1.175.638-2.154a5.73 5.73 0 0 0-.378-2.055.75.75 0 0 1 .135-.76Zm1.664 1.743c.052.35.079.708.079 1.072 0 1.268-.328 2.237-.937 3.052-.571.766-1.363 1.353-2.208 1.925l-.073.073a.75.75 0 0 1-.128.103 5.75 5.75 0 1 0 8.648 3.346c-.38.411-.8.809-1.303 1.136-.924.599-2.08.941-3.749.941a.75.75 0 0 1-.362-1.407c.679-.374 1.254-.831 1.697-1.456.44-.624.779-1.457.92-2.626.307-2.531-.74-5.029-2.584-6.16Z" clip-rule="evenodd"/></symbol></svg>